<?xml version="1.0" encoding="utf-8"?><svg viewBox="0 0 160 164" xmlns="http://www.w3.org/2000/svg" xmlns:xlink="http://www.w3.org/1999/xlink"><style>:root>svg{display:none}:root>svg:target{display:block}</style><svg fill="#474739" viewBox="0 0 24 25" id="diamond" xmlns="http://www.w3.org/2000/svg"><path fill-rule="evenodd" clip-rule="evenodd" d="M6.536 3.5a1.75 1.75 0 00-1.456.78L1.491 9.662c-.219.33-.245.752-.068 1.106A32.951 32.951 0 009.451 21.05l1.75 1.501a1.23 1.23 0 001.601 0l1.75-1.5a32.95 32.95 0 008.03-10.283c.176-.354.15-.776-.07-1.106l-3.59-5.382a1.75 1.75 0 00-1.456-.779L6.536 3.5zm-.208 1.611A.25.25 0 016.536 5h2.34L6.961 9.596a1.75 1.75 0 00-.1.326 69.307 69.307 0 01-2.11-.19l-1.405-.147 2.982-4.474zm-3.047 5.975a31.45 31.45 0 006.994 8.695L7.15 11.447a70.866 70.866 0 01-2.554-.222l-1.315-.139zm5.506.454l3.214 8.574 3.215-8.574a70.783 70.783 0 01-6.43 0h.001zm8.067-.093l-3.125 8.334a31.45 31.45 0 006.994-8.695l-1.315.139c-.85.089-1.7.163-2.554.222zm3.803-1.862l-1.406.148c-.702.074-1.405.137-2.11.19a1.745 1.745 0 00-.099-.327L15.126 5h2.34a.25.25 0 01.208.111l2.983 4.474zm-5.063.435c-2.393.124-4.79.124-7.184 0L10.501 5h3l2.092 5.02h.001z"/></svg><svg fill="#474739" viewBox="0 0 160 164" id="favicon" xmlns="http://www.w3.org/2000/svg"><path d="M85.5 29.491a.527.527 0 00-.528.53l.03 36.874a.53.53 0 01-.528.53l-66.292-.03a.527.527 0 01-.528-.53L17.634.61a.53.53 0 00-.528-.53L.548.07A.527.527 0 00.02.6L0 83.598a.531.531 0 00.528.53l101.57-.01a.529.529 0 00.528-.53l.04-53.527a.522.522 0 00-.154-.375.532.532 0 00-.374-.155l-16.638-.04z"/><path d="M65.286 17.253a.47.47 0 01.468-.47c16.844.1 33.329.077 49.455-.07 4.557-.04 8.243.44 11.059 1.44 24.598 8.72 21.749 44.146-3.905 48.801-4.484.82-9.624.37-14.347.43-.385.007-.578.203-.578.59l-.009 15.514a.673.673 0 00.193.47.65.65 0 00.464.19c3.534-.054 7.017-.087 10.451-.1 31.941-.11 51.776-35.256 35.846-62.879-5.705-9.897-14.233-16.47-25.584-19.72C125.411.483 120.609 0 114.392 0 92.029.02 69.885.043 47.961.07c-.206 0-.309.103-.309.31v56.684a.49.49 0 00.488.49l16.568-.05c.392 0 .588-.197.588-.59l-.01-39.66zM84.464 103.748a.516.516 0 01.518.52v33.877a.519.519 0 00.518.519l16.618.02a.515.515 0 00.518-.519l.01-51.53a.521.521 0 00-.518-.52H.538a.517.517 0 00-.518.52L.01 163.48a.518.518 0 00.518.519l16.598-.03a.515.515 0 00.518-.519l-.01-59.192a.518.518 0 01.518-.519l66.312.009zM107.746 96.645a.338.338 0 00-.607.21l.677 28.232a.335.335 0 00.07.2l28.902 38.572a.331.331 0 00.269.14l20.354-.01a.34.34 0 00.269-.539l-49.934-66.805z"/><path d="M65.296 109.453a.677.677 0 00-.677-.68h-16.3a.678.678 0 00-.677.68v53.867a.68.68 0 00.678.679h16.299a.676.676 0 00.677-.679v-53.867zM85.5 29.491l16.638.04a.524.524 0 01.488.327c.027.064.04.133.04.203l-.04 53.527a.53.53 0 01-.528.53l-101.57.01a.527.527 0 01-.528-.53L.02.6A.53.53 0 01.548.07l16.558.01a.527.527 0 01.528.53l.02 66.255a.53.53 0 00.528.53l66.292.03a.527.527 0 00.528-.53l-.03-36.874a.53.53 0 01.528-.53z"/><path d="M65.286 17.253l.01 39.661c0 .393-.196.59-.588.59l-16.568.05a.488.488 0 01-.488-.49V.38c0-.207.103-.31.309-.31C69.885.043 92.029.02 114.392 0c6.217 0 11.019.483 14.407 1.449 11.351 3.25 19.879 9.823 25.584 19.72 15.93 27.623-3.905 62.769-35.846 62.879-3.434.013-6.917.046-10.451.1a.64.64 0 01-.607-.405.673.673 0 01-.05-.255l.009-15.515c0-.386.193-.582.578-.59 4.723-.059 9.863.39 14.347-.429 25.654-4.655 28.503-40.08 3.905-48.802-2.816-.999-6.502-1.478-11.059-1.438-16.126.146-32.611.17-49.455.07a.467.467 0 00-.468.47zM84.464 103.748l-66.312-.009a.515.515 0 00-.518.519l.01 59.192a.518.518 0 01-.518.519l-16.598.03a.515.515 0 01-.518-.519l.01-76.845a.52.52 0 01.518-.52h101.59a.517.517 0 01.518.52l-.01 51.53a.515.515 0 01-.518.519l-16.618-.02a.515.515 0 01-.518-.519v-33.877a.519.519 0 00-.518-.52zM107.748 96.646l49.934 66.805a.34.34 0 01-.269.539l-20.354.01a.341.341 0 01-.269-.14l-28.902-38.572a.335.335 0 01-.07-.2l-.677-28.232a.339.339 0 01.607-.21z"/><path d="M64.619 108.773h-16.3a.678.678 0 00-.677.68v53.867c0 .375.303.679.678.679h16.299a.678.678 0 00.677-.679v-53.867a.678.678 0 00-.677-.68z"/></svg><svg fill="#474739" viewBox="0 0 89 34" id="logo" xmlns="http://www.w3.org/2000/svg"><path d="M54.273 8.198v3.271h-5.198v14.242H45.26V11.469h-5.198V8.198h14.21zM64.094 7.78c2.527 0 4.567.852 6.122 2.558 1.57 1.689 2.356 3.903 2.356 6.641 0 2.739-.786 4.952-2.356 6.641-1.555 1.673-3.604 2.51-6.146 2.51-2.559 0-4.623-.837-6.194-2.51-1.57-1.689-2.356-3.902-2.356-6.641 0-2.771.777-4.993 2.332-6.666 1.57-1.689 3.651-2.533 6.242-2.533zm-.048 3.148c-1.425 0-2.567.541-3.425 1.623-.842 1.083-1.263 2.534-1.263 4.354 0 1.886.42 3.362 1.263 4.428.842 1.066 2 1.607 3.473 1.623 1.442 0 2.575-.541 3.401-1.623.826-1.083 1.239-2.558 1.239-4.428 0-1.836-.421-3.288-1.263-4.354-.842-1.082-1.984-1.623-3.425-1.623zM75.203 8.198h7.457c1.943 0 3.482.475 4.615 1.426 1.15.935 1.725 2.337 1.725 4.207 0 1.836-.567 3.23-1.7 4.181-1.134.935-2.616 1.402-4.445 1.402h-3.887v6.297h-3.765V8.198zm3.765 3.148v5.043h3.376c1.976 0 2.964-.837 2.964-2.51 0-1.688-.98-2.533-2.94-2.533h-3.4zM17.29 6.045a.106.106 0 00-.107.108l.006 7.518a.108.108 0 01-.031.076.106.106 0 01-.076.032l-13.405-.006a.106.106 0 01-.076-.032.109.109 0 01-.031-.076L3.566.157A.109.109 0 003.535.08.106.106 0 003.459.05L.111.047a.106.106 0 00-.076.031.109.109 0 00-.031.076L0 17.076a.109.109 0 00.066.1.104.104 0 00.04.008l20.54-.002a.106.106 0 00.076-.031.109.109 0 00.031-.077l.008-10.913a.108.108 0 00-.066-.1.106.106 0 00-.04-.008l-3.365-.008z"/><path d="M13.202 3.55c0-.026.01-.05.028-.068a.094.094 0 01.067-.028c3.406.02 6.74.016 10-.014.922-.008 1.667.09 2.237.293 4.974 1.778 4.398 9-.79 9.95-.907.167-1.946.075-2.901.088-.078 0-.117.041-.117.12l-.002 3.163a.138.138 0 00.04.096.13.13 0 00.093.038c.715-.01 1.42-.017 2.114-.02 6.459-.022 10.47-7.188 7.248-12.82C30.065 2.33 28.341.99 26.046.328 25.36.13 24.39.032 23.132.032L9.7.046c-.042 0-.063.022-.063.064v11.556a.1.1 0 00.03.071c.018.019.043.03.069.03l3.35-.01c.08 0 .12-.04.12-.121l-.003-8.086zM17.08 21.185c.028 0 .055.01.074.03.02.02.031.047.031.076v6.906a.104.104 0 00.105.106l3.36.004a.104.104 0 00.074-.03c.02-.02.031-.047.031-.076l.002-10.505a.107.107 0 00-.03-.075.104.104 0 00-.075-.031H.11a.106.106 0 00-.105.106L.002 33.363a.104.104 0 00.105.106l3.356-.006a.104.104 0 00.074-.031c.02-.02.03-.047.03-.075l-.001-12.069a.104.104 0 01.105-.106l13.41.003zM21.788 19.736a.068.068 0 00-.076-.023.069.069 0 00-.046.066l.136 5.756a.07.07 0 00.015.04l5.844 7.865a.068.068 0 00.054.029l4.116-.002a.068.068 0 00.06-.039.07.07 0 00-.005-.071l-10.098-13.62z"/><path d="M13.204 22.348a.14.14 0 00-.084-.128.137.137 0 00-.053-.01H9.771a.136.136 0 00-.097.04.14.14 0 00-.04.098V33.33a.136.136 0 00.137.139h3.296a.137.137 0 00.137-.139V22.348zM17.29 6.045l3.364.008a.106.106 0 01.099.067.108.108 0 01.008.041l-.008 10.913a.109.109 0 01-.031.077.106.106 0 01-.076.031l-20.54.002a.104.104 0 01-.075-.031.108.108 0 01-.031-.077L.004.154A.106.106 0 01.111.046L3.459.05c.028 0 .056.011.076.031.02.02.031.048.031.077l.004 13.508a.106.106 0 00.107.108l13.405.006a.106.106 0 00.076-.032.108.108 0 00.031-.076l-.006-7.518a.106.106 0 01.107-.108z"/><path d="M13.202 3.55l.002 8.086c0 .08-.04.12-.119.12l-3.35.01a.098.098 0 01-.07-.029.1.1 0 01-.029-.07V.11c0-.042.021-.064.063-.064L23.132.032c1.258 0 2.229.099 2.914.296 2.295.662 4.02 2.002 5.173 4.02 3.222 5.632-.79 12.798-7.248 12.82-.695.003-1.4.01-2.114.02a.13.13 0 01-.123-.082.138.138 0 01-.01-.052l.002-3.163c0-.079.04-.12.117-.12.955-.013 1.994.079 2.901-.088 5.188-.95 5.764-8.172.79-9.95-.57-.204-1.315-.301-2.236-.293-3.261.03-6.595.034-10.001.014a.094.094 0 00-.095.096zM17.08 21.185l-13.41-.002a.104.104 0 00-.104.105l.002 12.069a.107.107 0 01-.03.075.104.104 0 01-.075.03l-3.356.007a.104.104 0 01-.105-.106l.002-15.667a.106.106 0 01.105-.106h20.543c.028 0 .055.01.074.03.02.02.031.047.031.076L20.755 28.2a.106.106 0 01-.03.075.104.104 0 01-.075.031l-3.36-.004a.104.104 0 01-.074-.03.107.107 0 01-.031-.076v-6.906a.107.107 0 00-.03-.075.104.104 0 00-.075-.031zM21.788 19.736l10.098 13.62a.07.07 0 01.006.072.069.069 0 01-.06.039l-4.116.002a.068.068 0 01-.055-.029l-5.844-7.864a.07.07 0 01-.015-.04l-.136-5.757a.069.069 0 01.088-.067.068.068 0 01.034.024z"/><path d="M13.067 22.21H9.771a.138.138 0 00-.137.138V33.33c0 .077.062.139.137.139h3.296a.138.138 0 00.137-.139V22.348a.138.138 0 00-.137-.139z"/></svg><svg fill="#474739" viewBox="0 0 25 24" id="phone" xmlns="http://www.w3.org/2000/svg"><path d="M20.45 21c-2.083 0-4.142-.454-6.175-1.363-2.033-.909-3.883-2.196-5.55-3.862-1.667-1.667-2.954-3.517-3.862-5.55C3.955 8.192 3.501 6.133 3.5 4.05c0-.3.1-.55.3-.75.2-.2.45-.3.75-.3H8.6c.233 0 .442.08.625.238a.915.915 0 01.325.562l.65 3.5c.033.267.025.492-.025.675-.05.183-.142.342-.275.475L7.475 10.9c.333.617.729 1.212 1.187 1.787.458.575.962 1.129 1.513 1.663.517.517 1.058.996 1.625 1.438.567.442 1.167.846 1.8 1.212l2.35-2.35c.15-.15.346-.263.588-.338.242-.075.48-.096.712-.062l3.45.7c.233.067.425.188.575.363a.88.88 0 01.225.587v4.05c0 .3-.1.55-.3.75-.2.2-.45.3-.75.3z"/></svg><svg fill="#474739" viewBox="0 0 24 25" id="retry" xmlns="http://www.w3.org/2000/svg"><g clip-path="url(#eclip0_1_271)"><path fill-rule="evenodd" clip-rule="evenodd" d="M10.98.293a12 12 0 0110.77 4.961V2.875a1.125 1.125 0 112.25 0V9.25h-6.375a1.125 1.125 0 110-2.25h2.59A9.75 9.75 0 002.541 9.886 1.126 1.126 0 11.358 9.34 12 12 0 0110.978.295l.002-.002zm-5.1 22.279a12 12 0 0017.76-7.412 1.125 1.125 0 00-2.183-.546A9.75 9.75 0 013.785 17.5h2.591a1.125 1.125 0 000-2.25H0v6.375a1.125 1.125 0 002.25 0v-2.379a12.002 12.002 0 003.63 3.326z"/></g><defs><clipPath id="eclip0_1_271"><path transform="translate(0 .25)" d="M0 0h24v24H0z"/></clipPath></defs></svg><svg fill="#474739" viewBox="0 0 24 25" id="scan" xmlns="http://www.w3.org/2000/svg"><g clip-path="url(#fclip0_1_307)"><path d="M9 12a1.25 1.25 0 100 2.5A1.25 1.25 0 009 12zm6 0a1.25 1.25 0 100 2.5 1.25 1.25 0 000-2.5zm-3-9.75a10 10 0 100 20 10 10 0 000-20zm0 18a8 8 0 01-8-8 4.12 4.12 0 010-.86 10.05 10.05 0 005.26-5.37 9.985 9.985 0 008.16 4.23c.76 0 1.51-.09 2.25-.26 1.25 4.26-1.17 8.69-5.41 9.93-.76.22-1.5.33-2.26.33zm-12-18a2 2 0 012-2h4v2H2v4H0v-4zm24 20a2 2 0 01-2 2h-4v-2h4v-4h2v4zm-22 2a2 2 0 01-2-2v-4h2v4h4v2H2zm20-24a2 2 0 012 2v4h-2v-4h-4v-2h4z"/></g><defs><clipPath id="fclip0_1_307"><path transform="translate(0 .25)" d="M0 0h24v24H0z"/></clipPath></defs></svg><svg fill="#474739" viewBox="0 0 25 24" id="stars" xmlns="http://www.w3.org/2000/svg"><path d="M9.5 4L12 9.5l5.5 2.5-5.5 2.5L9.5 20 7 14.5 1.5 12 7 9.5 9.5 4zm0 4.83L8.5 11l-2.17 1 2.17 1 1 2.17 1-2.17 2.17-1-2.17-1-1-2.17zm10 .17l-1.26-2.74L15.5 5l2.74-1.25L19.5 1l1.25 2.75L23.5 5l-2.75 1.26L19.5 9zm0 14l-1.26-2.74L15.5 19l2.74-1.25L19.5 15l1.25 2.75L23.5 19l-2.75 1.26L19.5 23z"/></svg><svg fill="#474739" viewBox="0 0 25 24" id="stream_user" xmlns="http://www.w3.org/2000/svg"><g clip-path="url(#hclip0_226_260)" stroke="#474739" stroke-width="2" stroke-linecap="round" stroke-linejoin="round"><path d="M5.582 14.204a5.991 5.991 0 014.812-2.41c1.402 0 2.691.48 3.713 1.286"/><path d="M9.535 18.221h-6a1.714 1.714 0 01-1.715-1.714V2.792a1.714 1.714 0 011.715-1.714h13.714a1.714 1.714 0 011.714 1.714v5.143"/><path d="M10.392 9.221a2.572 2.572 0 100-5.143 2.572 2.572 0 000 5.143zm3.024 8.887c-.602-.105-.602-.969 0-1.073a5.445 5.445 0 004.385-4.2l.036-.167c.13-.594.977-.598 1.113-.005l.044.194a5.473 5.473 0 004.397 4.174c.605.107.605.974 0 1.08a5.472 5.472 0 00-4.397 4.175l-.044.193c-.136.593-.983.59-1.113-.005l-.036-.166a5.444 5.444 0 00-4.385-4.2z"/></g><defs><clipPath id="hclip0_226_260"><path transform="translate(.834)" d="M0 0h24v24H0z"/></clipPath></defs></svg><svg fill="#474739" viewBox="0 0 25 24" id="telegram" xmlns="http://www.w3.org/2000/svg"><g clip-path="url(#iclip0_289_374)"><path d="M22.552 2.129L1.289 10.371c-.856.384-1.145 1.152-.207 1.57l5.455 1.742L19.726 5.49c.72-.515 1.457-.378.823.188L9.22 15.988l-.356 4.363c.33.673.933.676 1.318.342l3.134-2.981 5.368 4.04c1.246.742 1.925.263 2.193-1.097L24.398 3.9c.366-1.674-.257-2.411-1.846-1.77z"/></g><defs><clipPath id="iclip0_289_374"><path transform="translate(.5)" d="M0 0h24v24H0z"/></clipPath></defs></svg><svg fill="#474739" viewBox="0 0 25 24" id="whatsapp" xmlns="http://www.w3.org/2000/svg"><g clip-path="url(#jclip0_289_378)"><path fill-rule="evenodd" clip-rule="evenodd" d="M12.5 2c-5.523 0-10 4.477-10 10 0 1.89.525 3.66 1.438 5.168L3.046 20.2A1.01 1.01 0 004.3 21.454l3.032-.892A9.957 9.957 0 0012.5 22c5.523 0 10-4.477 10-10s-4.477-10-10-10zm-2.262 12.263c2.023 2.022 3.954 2.289 4.636 2.314 1.037.038 2.047-.754 2.44-1.673a.696.696 0 00-.088-.703c-.548-.7-1.289-1.203-2.013-1.703a.711.711 0 00-.973.158l-.6.915a.229.229 0 01-.305.076c-.407-.233-1-.629-1.426-1.055-.426-.426-.798-.992-1.007-1.373a.227.227 0 01.067-.291l.924-.686a.712.712 0 00.12-.94c-.448-.656-.97-1.49-1.727-2.043a.695.695 0 00-.684-.075c-.92.394-1.716 1.404-1.678 2.443.025.682.292 2.613 2.314 4.636z"/></g><defs><clipPath id="jclip0_289_378"><path transform="translate(.5)" d="M0 0h24v24H0z"/></clipPath></defs></svg><svg fill="#474739" viewBox="0 0 25 24" id="work_portfel" xmlns="http://www.w3.org/2000/svg"><path d="M4.166 21c-.55 0-1.021-.196-1.413-.588A1.922 1.922 0 012.166 19V8c0-.55.196-1.021.588-1.413A1.922 1.922 0 014.166 6h4V4c0-.55.196-1.021.588-1.413A1.922 1.922 0 0110.166 2h4c.55 0 1.021.196 1.413.588.392.392.588.863.587 1.412v2h4c.55 0 1.021.196 1.413.588.392.392.588.863.587 1.412v11c0 .55-.196 1.021-.588 1.413a1.922 1.922 0 01-1.412.587h-16zm0-2h16V8h-16v11zm6-13h4V4h-4v2z"/></svg></svg>