<svg width="24" height="25" viewBox="0 0 24 25" fill="none" xmlns="http://www.w3.org/2000/svg">
<path fill-rule="evenodd" clip-rule="evenodd" d="M6.53623 3.5C6.24808 3.50009 5.96441 3.57134 5.71041 3.70741C5.45642 3.84348 5.23995 4.04017 5.08023 4.28L1.49123 9.662C1.27223 9.992 1.24623 10.414 1.42323 10.768C3.38732 14.6961 6.11679 18.1919 9.45123 21.05L11.2012 22.551C11.4242 22.7421 11.7081 22.8471 12.0017 22.8471C12.2954 22.8471 12.5793 22.7421 12.8022 22.551L14.5522 21.051C17.8872 18.1927 20.617 14.6965 22.5812 10.768C22.7582 10.414 22.7312 9.992 22.5122 9.662L18.9212 4.28C18.7615 4.04049 18.5451 3.84409 18.2913 3.7082C18.0375 3.57232 17.7541 3.50115 17.4662 3.501L6.53623 3.5ZM6.32823 5.111C6.3511 5.07682 6.38204 5.0488 6.41832 5.02944C6.45461 5.01008 6.4951 4.99997 6.53623 5H8.87623L6.96123 9.596C6.91736 9.70115 6.88387 9.81034 6.86123 9.922C6.15697 9.86942 5.45355 9.80608 4.75123 9.732L3.34623 9.585L6.32823 5.111ZM3.28123 11.086C5.07563 14.3781 7.44424 17.3227 10.2752 19.781L7.15023 11.447C6.29763 11.3884 5.44615 11.3144 4.59623 11.225L3.28123 11.086ZM8.78723 11.54L12.0012 20.114L15.2162 11.54C13.074 11.6374 10.9285 11.6374 8.78623 11.54H8.78723ZM16.8542 11.447L13.7292 19.781C16.5602 17.3227 18.9288 14.3781 20.7232 11.086L19.4082 11.225C18.5582 11.314 17.7072 11.388 16.8542 11.447ZM20.6572 9.585L19.2512 9.733C18.5489 9.80709 17.8455 9.87043 17.1412 9.923C17.119 9.81103 17.0858 9.7015 17.0422 9.596L15.1262 5H17.4662C17.5074 4.99997 17.5479 5.01008 17.5841 5.02944C17.6204 5.0488 17.6514 5.07682 17.6742 5.111L20.6572 9.585ZM15.5942 10.02C13.2012 10.144 10.8042 10.144 8.41023 10.02L10.5012 5H13.5012L15.5932 10.02H15.5942Z" fill="#9B6FEA"/>
</svg>
