<svg width="160" height="164" viewBox="0 0 160 164" fill="none" xmlns="http://www.w3.org/2000/svg">
<path d="M85.5004 29.4914C85.3604 29.4914 85.226 29.5472 85.127 29.6465C85.028 29.7458 84.9724 29.8805 84.9724 30.0209L85.0023 66.8947C85.0023 67.0352 84.9466 67.1698 84.8476 67.2691C84.7486 67.3684 84.6143 67.4242 84.4742 67.4242L18.182 67.3943C18.042 67.3943 17.9077 67.3385 17.8087 67.2392C17.7097 67.1399 17.654 67.0052 17.654 66.8648L17.6341 0.609723C17.6341 0.469296 17.5785 0.334631 17.4794 0.235334C17.3804 0.136038 17.2461 0.0802436 17.106 0.0802436L0.54794 0.0702436C0.407898 0.0702436 0.273603 0.126038 0.174579 0.225334C0.0755552 0.324631 0.0199146 0.459296 0.0199146 0.599723L0 83.5984C0 83.6679 0.0136582 83.7367 0.040194 83.801C0.0667298 83.8652 0.105633 83.9236 0.154665 83.9728C0.203697 84.0219 0.261897 84.0609 0.325961 84.0875C0.390024 84.1141 0.458684 84.1278 0.528025 84.1278L102.098 84.1178C102.238 84.1178 102.373 84.0621 102.472 83.9628C102.571 83.8635 102.626 83.7288 102.626 83.5884L102.666 30.0609C102.666 29.9913 102.653 29.9225 102.626 29.8582C102.599 29.794 102.561 29.7356 102.512 29.6864C102.463 29.6373 102.404 29.5983 102.34 29.5717C102.276 29.5451 102.208 29.5314 102.138 29.5314L85.5004 29.4914Z" fill="white"/>
<path d="M65.286 17.2531C65.286 17.1285 65.3354 17.0091 65.4232 16.9211C65.511 16.833 65.6301 16.7835 65.7543 16.7835C82.598 16.8834 99.083 16.8601 115.209 16.7136C119.766 16.6736 123.452 17.1532 126.268 18.1522C150.866 26.8736 148.017 62.2989 122.363 66.9543C117.879 67.7735 112.739 67.324 108.016 67.3839C107.631 67.3906 107.438 67.587 107.438 67.9733L107.429 83.4881C107.429 83.5756 107.446 83.6621 107.479 83.7428C107.512 83.8234 107.561 83.8966 107.622 83.9579C107.683 84.0193 107.756 84.0677 107.835 84.1002C107.915 84.1327 108 84.1488 108.086 84.1475C111.62 84.0942 115.103 84.0609 118.537 84.0476C150.478 83.9377 170.313 48.7921 154.383 21.1692C148.678 11.2723 140.15 4.69871 128.799 1.44856C125.411 0.482842 120.609 0 114.392 0C92.0294 0.0199804 69.8855 0.0432677 47.9608 0.0699083C47.7549 0.0699083 47.652 0.173138 47.652 0.379602V57.064C47.652 57.1939 47.7034 57.3184 47.7949 57.4102C47.8865 57.502 48.0107 57.5536 48.1402 57.5536L64.7082 57.5036C65.1001 57.5036 65.296 57.3071 65.296 56.9142L65.286 17.2531Z" fill="white"/>
<path d="M84.464 103.748C84.6014 103.748 84.7332 103.803 84.8304 103.901C84.9275 103.998 84.9821 104.13 84.9821 104.268V138.145C84.9821 138.283 85.0367 138.415 85.1338 138.512C85.231 138.61 85.3628 138.664 85.5002 138.664L102.118 138.684C102.255 138.684 102.387 138.63 102.484 138.532C102.582 138.435 102.636 138.303 102.636 138.165L102.646 86.6352C102.646 86.4975 102.591 86.3654 102.494 86.2679C102.397 86.1705 102.265 86.1158 102.128 86.1158H0.537754C0.400355 86.1158 0.268573 86.1705 0.171417 86.2679C0.0742616 86.3654 0.0196713 86.4975 0.0196713 86.6352L0.00972926 163.48C0.00972926 163.618 0.0642891 163.75 0.161445 163.847C0.258601 163.945 0.390383 163.999 0.527782 163.999L17.1257 163.969C17.2631 163.969 17.3949 163.915 17.492 163.817C17.5892 163.72 17.6438 163.588 17.6438 163.45L17.6339 104.258C17.6339 104.12 17.6884 103.988 17.7856 103.891C17.8827 103.793 18.0145 103.739 18.1519 103.739L84.464 103.748Z" fill="white"/>
<path d="M107.746 96.6451C107.703 96.5885 107.643 96.5469 107.575 96.5263C107.507 96.5057 107.434 96.5071 107.367 96.5303C107.3 96.5535 107.242 96.5974 107.201 96.6556C107.16 96.7139 107.138 96.7836 107.139 96.8549L107.816 125.087C107.817 125.16 107.842 125.23 107.886 125.287L136.788 163.859C136.819 163.902 136.859 163.937 136.906 163.961C136.952 163.985 137.004 163.998 137.057 163.999L157.411 163.989C157.473 163.988 157.533 163.97 157.586 163.937C157.638 163.904 157.681 163.857 157.709 163.801C157.736 163.746 157.748 163.683 157.743 163.621C157.738 163.559 157.716 163.5 157.68 163.45L107.746 96.6451Z" fill="white"/>
<path d="M65.2962 109.453C65.2962 109.363 65.2787 109.275 65.2447 109.193C65.2106 109.11 65.1607 109.035 65.0978 108.972C65.0349 108.909 64.9602 108.859 64.878 108.825C64.7958 108.791 64.7077 108.773 64.6187 108.773H48.3197C48.14 108.773 47.9677 108.845 47.8406 108.972C47.7136 109.1 47.6422 109.272 47.6422 109.453V163.32C47.6422 163.5 47.7136 163.673 47.8406 163.8C47.9677 163.928 48.14 163.999 48.3197 163.999H64.6187C64.7077 163.999 64.7958 163.982 64.878 163.947C64.9602 163.913 65.0349 163.863 65.0978 163.8C65.1607 163.737 65.2106 163.662 65.2447 163.58C65.2787 163.497 65.2962 163.409 65.2962 163.32V109.453Z" fill="white"/>
<path d="M85.5004 29.4914L102.138 29.5314C102.208 29.5314 102.276 29.5451 102.34 29.5717C102.404 29.5983 102.463 29.6373 102.512 29.6864C102.561 29.7356 102.599 29.794 102.626 29.8582C102.653 29.9225 102.666 29.9913 102.666 30.0609L102.626 83.5884C102.626 83.7288 102.571 83.8635 102.472 83.9628C102.373 84.0621 102.238 84.1178 102.098 84.1178L0.528025 84.1278C0.458684 84.1278 0.390024 84.1141 0.325961 84.0875C0.261897 84.0609 0.203697 84.0219 0.154665 83.9728C0.105633 83.9236 0.0667298 83.8652 0.040194 83.801C0.0136582 83.7367 0 83.6679 0 83.5984L0.0199146 0.599723C0.0199146 0.459296 0.0755552 0.324631 0.174579 0.225334C0.273603 0.126038 0.407898 0.0702436 0.54794 0.0702436L17.106 0.0802436C17.2461 0.0802436 17.3804 0.136038 17.4794 0.235334C17.5785 0.334631 17.6341 0.469296 17.6341 0.609723L17.654 66.8648C17.654 67.0052 17.7097 67.1399 17.8087 67.2392C17.9077 67.3385 18.042 67.3943 18.182 67.3943L84.4742 67.4242C84.6143 67.4242 84.7486 67.3684 84.8476 67.2691C84.9466 67.1698 85.0023 67.0352 85.0023 66.8947L84.9724 30.0209C84.9724 29.8805 85.028 29.7458 85.127 29.6465C85.226 29.5472 85.3604 29.4914 85.5004 29.4914Z" fill="white"/>
<path d="M65.286 17.2531L65.296 56.9142C65.296 57.3071 65.1001 57.5036 64.7082 57.5036L48.1402 57.5536C48.0107 57.5536 47.8865 57.502 47.7949 57.4102C47.7034 57.3184 47.652 57.1939 47.652 57.064V0.379602C47.652 0.173138 47.7549 0.0699083 47.9608 0.0699083C69.8855 0.0432677 92.0294 0.0199804 114.392 0C120.609 0 125.411 0.482842 128.799 1.44856C140.15 4.69871 148.678 11.2723 154.383 21.1692C170.313 48.7921 150.478 83.9377 118.537 84.0476C115.103 84.0609 111.62 84.0942 108.086 84.1475C108 84.1488 107.915 84.1327 107.835 84.1002C107.756 84.0677 107.683 84.0193 107.622 83.9579C107.561 83.8966 107.512 83.8234 107.479 83.7428C107.446 83.6621 107.429 83.5756 107.429 83.4881L107.438 67.9733C107.438 67.587 107.631 67.3906 108.016 67.3839C112.739 67.324 117.879 67.7735 122.363 66.9543C148.017 62.2989 150.866 26.8736 126.268 18.1522C123.452 17.1532 119.766 16.6736 115.209 16.7136C99.083 16.8601 82.598 16.8834 65.7543 16.7835C65.6301 16.7835 65.511 16.833 65.4232 16.9211C65.3354 17.0091 65.286 17.1285 65.286 17.2531Z" fill="white"/>
<path d="M84.464 103.748L18.1519 103.739C18.0145 103.739 17.8827 103.793 17.7856 103.891C17.6884 103.988 17.6339 104.12 17.6339 104.258L17.6438 163.45C17.6438 163.588 17.5892 163.72 17.492 163.817C17.3949 163.915 17.2631 163.969 17.1257 163.969L0.527782 163.999C0.390383 163.999 0.258601 163.945 0.161445 163.847C0.0642891 163.75 0.00972926 163.618 0.00972926 163.48L0.0196713 86.6352C0.0196713 86.4975 0.0742616 86.3654 0.171417 86.2679C0.268573 86.1705 0.400355 86.1158 0.537754 86.1158H102.128C102.265 86.1158 102.397 86.1705 102.494 86.2679C102.591 86.3654 102.646 86.4975 102.646 86.6352L102.636 138.165C102.636 138.303 102.582 138.435 102.484 138.532C102.387 138.63 102.255 138.684 102.118 138.684L85.5002 138.664C85.3628 138.664 85.231 138.61 85.1338 138.512C85.0367 138.415 84.9821 138.283 84.9821 138.145V104.268C84.9821 104.13 84.9275 103.998 84.8304 103.901C84.7332 103.803 84.6014 103.748 84.464 103.748Z" fill="white"/>
<path d="M107.748 96.6461L157.682 163.451C157.718 163.501 157.74 163.56 157.745 163.622C157.75 163.684 157.738 163.747 157.711 163.802C157.683 163.858 157.64 163.905 157.588 163.938C157.535 163.971 157.475 163.989 157.413 163.99L137.059 164C137.006 163.999 136.954 163.986 136.908 163.962C136.861 163.938 136.821 163.903 136.79 163.86L107.888 125.288C107.844 125.231 107.819 125.161 107.818 125.088L107.141 96.8558C107.14 96.7845 107.161 96.7148 107.203 96.6566C107.244 96.5984 107.302 96.5545 107.369 96.5313C107.436 96.5081 107.509 96.5067 107.577 96.5273C107.645 96.5479 107.705 96.5894 107.748 96.6461Z" fill="white"/>
<path d="M64.6187 108.773H48.3197C47.9455 108.773 47.6422 109.077 47.6422 109.453V163.32C47.6422 163.695 47.9455 163.999 48.3197 163.999H64.6187C64.9929 163.999 65.2962 163.695 65.2962 163.32V109.453C65.2962 109.077 64.9929 108.773 64.6187 108.773Z" fill="white"/>
</svg>
