<svg width="89" height="34" viewBox="0 0 89 34" fill="none" xmlns="http://www.w3.org/2000/svg">
<path d="M54.2729 8.19788V11.4693H49.0747V25.7109H45.2611V11.4693H40.0629V8.19788H54.2729Z" fill="#030303"/>
<path d="M64.0943 7.77973C66.6205 7.77973 68.6609 8.63242 70.2155 10.3378C71.7863 12.0268 72.5717 14.2405 72.5717 16.979C72.5717 19.7175 71.7863 21.9312 70.2155 23.6202C68.6609 25.2928 66.6124 26.1291 64.07 26.1291C61.5114 26.1291 59.4467 25.2928 57.8759 23.6202C56.3051 21.9312 55.5197 19.7175 55.5197 16.979C55.5197 14.2077 56.297 11.9858 57.8516 10.3132C59.4224 8.62422 61.5033 7.77973 64.0943 7.77973ZM64.0457 10.9281C62.6207 10.9281 61.479 11.4693 60.6207 12.5515C59.7787 13.6338 59.3576 15.085 59.3576 16.9052C59.3576 18.791 59.7787 20.2668 60.6207 21.3327C61.4628 22.3985 62.6207 22.9397 64.0943 22.9561C65.5356 22.9561 66.6691 22.4149 67.495 21.3327C68.3209 20.2504 68.7338 18.7746 68.7338 16.9052C68.7338 15.0686 68.3128 13.6174 67.4707 12.5515C66.6286 11.4693 65.487 10.9281 64.0457 10.9281Z" fill="#030303"/>
<path d="M75.2029 8.19788H82.6601C84.6034 8.19788 86.1418 8.67342 87.2754 9.6245C88.4251 10.5592 89 11.9612 89 13.8306C89 15.6672 88.4332 17.061 87.2997 18.0121C86.1661 18.9468 84.6844 19.4141 82.8545 19.4141H78.968V25.7109H75.2029V8.19788ZM78.968 11.3463V16.3887H82.3444C84.32 16.3887 85.3078 15.5524 85.3078 13.8798C85.3078 12.1908 84.3281 11.3463 82.3687 11.3463H78.968Z" fill="#030303"/>
<path d="M17.2899 6.04498C17.2615 6.04498 17.2344 6.05636 17.2143 6.0766C17.1943 6.09685 17.1831 6.1243 17.1831 6.15293L17.1891 13.6708C17.1891 13.6995 17.1779 13.7269 17.1578 13.7472C17.1378 13.7674 17.1107 13.7788 17.0823 13.7788L3.67676 13.7727C3.64844 13.7727 3.62129 13.7613 3.60126 13.7411C3.58124 13.7208 3.56999 13.6934 3.56999 13.6647L3.56596 0.156538C3.56596 0.127907 3.55471 0.100452 3.53468 0.0802069C3.51466 0.0599621 3.48749 0.0485868 3.45918 0.0485868L0.110804 0.0465479C0.082485 0.0465479 0.055328 0.0579233 0.0353034 0.0781681C0.0152787 0.0984129 0.00402712 0.125869 0.00402712 0.154499L0 17.0764C0 17.0906 0.00276195 17.1046 0.00812801 17.1177C0.0134941 17.1308 0.0213611 17.1427 0.0312762 17.1527C0.0411914 17.1628 0.0529608 17.1707 0.0659156 17.1761C0.0788704 17.1816 0.0927548 17.1843 0.106777 17.1843L20.6463 17.1823C20.6746 17.1823 20.7018 17.1709 20.7218 17.1507C20.7418 17.1304 20.7531 17.103 20.7531 17.0744L20.7611 6.16108C20.7611 6.14691 20.7584 6.13287 20.753 6.11977C20.7476 6.10668 20.7398 6.09477 20.7298 6.08475C20.7199 6.07472 20.7082 6.06677 20.6952 6.06135C20.6822 6.05592 20.6684 6.05313 20.6543 6.05313L17.2899 6.04498Z" fill="#030303"/>
<path d="M13.2021 3.54981C13.2021 3.52442 13.2121 3.50007 13.2298 3.48212C13.2476 3.46417 13.2717 3.45408 13.2968 3.45408C16.7029 3.47445 20.0365 3.46969 23.2976 3.43982C24.219 3.43167 24.9644 3.52944 25.5339 3.73312C30.5081 5.51127 29.9319 12.7338 24.7441 13.683C23.8375 13.85 22.798 13.7583 21.843 13.7706C21.7651 13.7719 21.7262 13.812 21.7262 13.8907L21.7241 17.0539C21.7241 17.0717 21.7276 17.0894 21.7343 17.1058C21.741 17.1223 21.7508 17.1372 21.7632 17.1497C21.7756 17.1622 21.7903 17.1721 21.8064 17.1787C21.8225 17.1853 21.8397 17.1886 21.8571 17.1884C22.5716 17.1775 23.2761 17.1707 23.9705 17.168C30.4295 17.1456 34.4407 9.98005 31.2193 4.34824C30.0655 2.33043 28.341 0.990207 26.0456 0.327562C25.3606 0.130669 24.3895 0.0322266 23.1324 0.0322266C18.6101 0.0363002 14.1322 0.0410481 9.69861 0.0464796C9.65697 0.0464796 9.63616 0.0675262 9.63616 0.10962V11.6665C9.63616 11.693 9.64656 11.7184 9.66507 11.7371C9.68358 11.7558 9.7087 11.7663 9.73488 11.7663L13.0853 11.7562C13.1645 11.7562 13.2041 11.7161 13.2041 11.636L13.2021 3.54981Z" fill="#030303"/>
<path d="M17.0803 21.1846C17.1081 21.1846 17.1347 21.1958 17.1544 21.2157C17.174 21.2355 17.185 21.2625 17.185 21.2906V28.1974C17.185 28.2255 17.1961 28.2524 17.2157 28.2723C17.2354 28.2922 17.262 28.3033 17.2898 28.3033L20.6503 28.3074C20.678 28.3074 20.7047 28.2962 20.7243 28.2764C20.744 28.2565 20.755 28.2296 20.755 28.2015L20.757 17.6956C20.757 17.6675 20.746 17.6405 20.7264 17.6207C20.7067 17.6008 20.6801 17.5896 20.6523 17.5896H0.108744C0.0809597 17.5896 0.0543107 17.6008 0.0346639 17.6207C0.0150171 17.6405 0.00397793 17.6675 0.00397793 17.6956L0.00196745 33.3628C0.00196745 33.3909 0.0130005 33.4178 0.0326473 33.4377C0.0522941 33.4575 0.078943 33.4687 0.106728 33.4687L3.46316 33.4626C3.49094 33.4626 3.51759 33.4514 3.53723 33.4316C3.55688 33.4117 3.56792 33.3848 3.56792 33.3567L3.56591 21.2885C3.56591 21.2604 3.57694 21.2335 3.59659 21.2136C3.61624 21.1938 3.64288 21.1826 3.67067 21.1826L17.0803 21.1846Z" fill="#030303"/>
<path d="M21.7884 19.7364C21.7797 19.7248 21.7676 19.7164 21.7538 19.7122C21.74 19.708 21.7253 19.7083 21.7117 19.713C21.6981 19.7177 21.6863 19.7267 21.678 19.7385C21.6698 19.7504 21.6654 19.7646 21.6655 19.7792L21.8025 25.5352C21.8028 25.55 21.8077 25.5642 21.8166 25.5759L27.6611 33.4401C27.6674 33.4488 27.6756 33.4559 27.685 33.4609C27.6945 33.4658 27.7049 33.4685 27.7156 33.4686L31.8315 33.4666C31.8441 33.4664 31.8563 33.4627 31.8669 33.456C31.8776 33.4492 31.8862 33.4397 31.8918 33.4283C31.8974 33.417 31.8998 33.4043 31.8988 33.3916C31.8977 33.379 31.8933 33.3669 31.8859 33.3566L21.7884 19.7364Z" fill="#030303"/>
<path d="M13.2042 22.3476C13.2042 22.3294 13.2006 22.3114 13.1937 22.2946C13.1869 22.2778 13.1768 22.2625 13.164 22.2497C13.1513 22.2368 13.1362 22.2266 13.1196 22.2196C13.103 22.2127 13.0852 22.2091 13.0672 22.2091H9.77118C9.73485 22.2091 9.7 22.2237 9.67431 22.2497C9.64862 22.2756 9.63419 22.3109 9.63419 22.3476V33.3301C9.63419 33.3669 9.64862 33.4021 9.67431 33.4281C9.7 33.454 9.73485 33.4686 9.77118 33.4686H13.0672C13.0852 33.4686 13.103 33.465 13.1196 33.4581C13.1362 33.4511 13.1513 33.4409 13.164 33.4281C13.1768 33.4152 13.1869 33.3999 13.1937 33.3831C13.2006 33.3663 13.2042 33.3483 13.2042 33.3301V22.3476Z" fill="#030303"/>
<path d="M17.2899 6.04498L20.6543 6.05313C20.6684 6.05313 20.6822 6.05592 20.6952 6.06135C20.7082 6.06677 20.7199 6.07472 20.7298 6.08475C20.7398 6.09477 20.7476 6.10668 20.753 6.11977C20.7584 6.13287 20.7611 6.14691 20.7611 6.16108L20.7531 17.0744C20.7531 17.103 20.7418 17.1304 20.7218 17.1507C20.7018 17.1709 20.6746 17.1823 20.6463 17.1823L0.106777 17.1843C0.0927548 17.1843 0.0788704 17.1816 0.0659156 17.1761C0.0529608 17.1707 0.0411914 17.1628 0.0312762 17.1527C0.0213611 17.1427 0.0134941 17.1308 0.00812801 17.1177C0.00276195 17.1046 0 17.0906 0 17.0764L0.00402712 0.154499C0.00402712 0.125869 0.0152787 0.0984129 0.0353034 0.0781681C0.055328 0.0579233 0.082485 0.0465479 0.110804 0.0465479L3.45918 0.0485868C3.48749 0.0485868 3.51466 0.0599621 3.53468 0.0802069C3.55471 0.100452 3.56596 0.127907 3.56596 0.156538L3.56999 13.6647C3.56999 13.6934 3.58124 13.7208 3.60126 13.7411C3.62129 13.7613 3.64844 13.7727 3.67676 13.7727L17.0823 13.7788C17.1107 13.7788 17.1378 13.7674 17.1578 13.7472C17.1779 13.7269 17.1891 13.6995 17.1891 13.6708L17.1831 6.15293C17.1831 6.1243 17.1943 6.09685 17.2143 6.0766C17.2344 6.05636 17.2615 6.04498 17.2899 6.04498Z" fill="#030303"/>
<path d="M13.2021 3.54981L13.2041 11.636C13.2041 11.7161 13.1645 11.7562 13.0853 11.7562L9.73488 11.7663C9.7087 11.7663 9.68358 11.7558 9.66507 11.7371C9.64656 11.7184 9.63616 11.693 9.63616 11.6665V0.10962C9.63616 0.0675262 9.65697 0.0464796 9.69861 0.0464796C14.1322 0.0410481 18.6101 0.0363002 23.1324 0.0322266C24.3895 0.0322266 25.3606 0.130669 26.0456 0.327562C28.341 0.990207 30.0655 2.33043 31.2193 4.34824C34.4407 9.98005 30.4295 17.1456 23.9705 17.168C23.2761 17.1707 22.5716 17.1775 21.8571 17.1884C21.8397 17.1886 21.8225 17.1853 21.8064 17.1787C21.7903 17.1721 21.7756 17.1622 21.7632 17.1497C21.7508 17.1372 21.741 17.1223 21.7343 17.1058C21.7276 17.0894 21.7241 17.0717 21.7241 17.0539L21.7262 13.8907C21.7262 13.812 21.7651 13.7719 21.843 13.7706C22.798 13.7583 23.8375 13.85 24.7441 13.683C29.9319 12.7338 30.5081 5.51127 25.5339 3.73312C24.9644 3.52944 24.219 3.43167 23.2976 3.43982C20.0365 3.46969 16.7029 3.47445 13.2968 3.45408C13.2717 3.45408 13.2476 3.46417 13.2298 3.48212C13.2121 3.50007 13.2021 3.52442 13.2021 3.54981Z" fill="#030303"/>
<path d="M17.0803 21.1846L3.67067 21.1826C3.64288 21.1826 3.61624 21.1938 3.59659 21.2136C3.57694 21.2335 3.56591 21.2604 3.56591 21.2885L3.56792 33.3567C3.56792 33.3848 3.55688 33.4117 3.53723 33.4316C3.51759 33.4514 3.49094 33.4626 3.46316 33.4626L0.106728 33.4687C0.078943 33.4687 0.0522941 33.4575 0.0326473 33.4377C0.0130005 33.4178 0.00196745 33.3909 0.00196745 33.3628L0.00397793 17.6956C0.00397793 17.6675 0.0150171 17.6405 0.0346639 17.6207C0.0543107 17.6008 0.0809597 17.5896 0.108744 17.5896H20.6523C20.6801 17.5896 20.7067 17.6008 20.7264 17.6207C20.746 17.6405 20.757 17.6675 20.757 17.6956L20.755 28.2015C20.755 28.2296 20.744 28.2565 20.7243 28.2764C20.7047 28.2962 20.678 28.3074 20.6503 28.3074L17.2898 28.3033C17.262 28.3033 17.2354 28.2922 17.2157 28.2723C17.1961 28.2524 17.185 28.2255 17.185 28.1974V21.2906C17.185 21.2625 17.174 21.2355 17.1544 21.2157C17.1347 21.1958 17.1081 21.1846 17.0803 21.1846Z" fill="#030303"/>
<path d="M21.7884 19.7364L31.8859 33.3566C31.8933 33.3669 31.8977 33.379 31.8988 33.3916C31.8998 33.4043 31.8974 33.417 31.8918 33.4283C31.8862 33.4397 31.8776 33.4492 31.8669 33.456C31.8563 33.4627 31.8441 33.4664 31.8315 33.4666L27.7156 33.4686C27.7049 33.4685 27.6945 33.4658 27.685 33.4609C27.6756 33.4559 27.6674 33.4488 27.6611 33.4401L21.8166 25.5759C21.8077 25.5642 21.8028 25.55 21.8025 25.5352L21.6655 19.7792C21.6654 19.7646 21.6698 19.7504 21.678 19.7385C21.6863 19.7267 21.6981 19.7177 21.7117 19.713C21.7253 19.7083 21.74 19.708 21.7538 19.7122C21.7676 19.7164 21.7797 19.7248 21.7884 19.7364Z" fill="#030303"/>
<path d="M13.0672 22.2091H9.77118C9.69552 22.2091 9.63419 22.2711 9.63419 22.3476V33.3301C9.63419 33.4066 9.69552 33.4686 9.77118 33.4686H13.0672C13.1428 33.4686 13.2042 33.4066 13.2042 33.3301V22.3476C13.2042 22.2711 13.1428 22.2091 13.0672 22.2091Z" fill="#030303"/>
</svg>
