<svg width="32" height="33" viewBox="0 0 32 33" fill="none" xmlns="http://www.w3.org/2000/svg">
<path d="M11.0214 19.8232C10.7761 19.8232 10.6107 19.8472 10.5254 19.8712V21.4419C10.6267 21.4659 10.7534 21.4726 10.9281 21.4726C11.5667 21.4726 11.9601 21.1499 11.9601 20.6046C11.9601 20.1166 11.6214 19.8232 11.0214 19.8232ZM15.6707 19.8392C15.4041 19.8392 15.2307 19.8632 15.1281 19.8872V23.3672C15.2307 23.3912 15.3961 23.3912 15.5454 23.3912C16.6347 23.3992 17.3441 22.7992 17.3441 21.5299C17.3521 20.4232 16.7054 19.8392 15.6707 19.8392Z" fill="#FA6868"/>
<path d="M18.6673 2.91699H8.00065C7.29341 2.91699 6.61513 3.19794 6.11503 3.69804C5.61494 4.19814 5.33398 4.87641 5.33398 5.58366V26.917C5.33398 27.6242 5.61494 28.3025 6.11503 28.8026C6.61513 29.3027 7.29341 29.5837 8.00065 29.5837H24.0007C24.7079 29.5837 25.3862 29.3027 25.8863 28.8026C26.3864 28.3025 26.6673 27.6242 26.6673 26.917V10.917L18.6673 2.91699ZM12.6647 21.837C12.2527 22.2237 11.6447 22.397 10.9367 22.397C10.7994 22.3985 10.6622 22.3905 10.526 22.373V24.2743H9.33398V19.0263C9.87192 18.9461 10.4155 18.9095 10.9593 18.917C11.702 18.917 12.23 19.0583 12.586 19.3423C12.9247 19.6117 13.154 20.053 13.154 20.573C13.1527 21.0957 12.9793 21.537 12.6647 21.837ZM17.7407 23.6437C17.1807 24.109 16.3287 24.3303 15.2873 24.3303C14.6633 24.3303 14.222 24.2903 13.922 24.2503V19.0277C14.4601 18.9491 15.0035 18.9121 15.5473 18.917C16.5567 18.917 17.2127 19.0983 17.7247 19.485C18.278 19.8957 18.6247 20.5503 18.6247 21.4903C18.6247 22.5077 18.2527 23.2103 17.7407 23.6437ZM22.6673 19.9437H20.6247V21.1583H22.534V22.137H20.6247V24.2757H19.4167V18.957H22.6673V19.9437ZM18.6673 12.2503H17.334V5.58366L24.0007 12.2503H18.6673Z" fill="#FA6868"/>
</svg>
