<svg width="24" height="25" viewBox="0 0 24 25" fill="none" xmlns="http://www.w3.org/2000/svg">
<g clip-path="url(#clip0_1_271)">
<path fill-rule="evenodd" clip-rule="evenodd" d="M10.98 0.293463C13.0511 0.11672 15.1325 0.480973 17.0205 1.35054C18.9085 2.22011 20.5382 3.56517 21.75 5.25396V2.87496C21.75 2.57659 21.8685 2.29045 22.0795 2.07947C22.2905 1.86849 22.5766 1.74996 22.875 1.74996C23.1734 1.74996 23.4595 1.86849 23.6705 2.07947C23.8815 2.29045 24 2.57659 24 2.87496V9.24996H17.625C17.3266 9.24996 17.0405 9.13144 16.8295 8.92046C16.6185 8.70948 16.5 8.42333 16.5 8.12496C16.5 7.82659 16.6185 7.54045 16.8295 7.32947C17.0405 7.11849 17.3266 6.99996 17.625 6.99996H20.2155C19.1897 5.39482 17.7161 4.12534 15.9768 3.34835C14.2376 2.57135 12.3088 2.32087 10.4287 2.62786C8.54868 2.93484 6.79975 3.78584 5.39797 5.07573C3.99618 6.36562 3.00296 8.03789 2.541 9.88596C2.50692 10.0311 2.44433 10.1681 2.35685 10.2889C2.26937 10.4096 2.15876 10.5118 2.03144 10.5894C1.90412 10.667 1.76264 10.7186 1.61523 10.7411C1.46781 10.7635 1.3174 10.7564 1.17274 10.7203C1.02808 10.6841 0.892055 10.6195 0.77258 10.5302C0.653105 10.441 0.552562 10.3289 0.476797 10.2005C0.401032 10.072 0.351557 9.92983 0.331248 9.7821C0.31094 9.63437 0.320203 9.48408 0.3585 9.33996C0.965316 6.9136 2.3151 4.73748 4.21919 3.11578C6.12327 1.49408 8.48649 0.507859 10.9785 0.294963L10.98 0.293463ZM5.88 22.5715C7.48798 23.5245 9.29637 24.0888 11.161 24.2192C13.0257 24.3497 14.895 24.0428 16.62 23.3229C18.3451 22.603 19.8781 21.4901 21.0969 20.0729C22.3156 18.6557 23.1865 16.9733 23.64 15.16C23.7075 14.8723 23.6591 14.5695 23.5053 14.3172C23.3514 14.0649 23.1045 13.8832 22.8178 13.8115C22.5311 13.7398 22.2277 13.7838 21.9732 13.9339C21.7186 14.0841 21.5334 14.3284 21.4575 14.614C20.9953 16.4616 20.002 18.1335 18.6004 19.4231C17.1987 20.7126 15.4501 21.5634 13.5703 21.8704C11.6906 22.1773 9.76213 21.927 8.02306 21.1503C6.28399 20.3737 4.81049 19.1046 3.7845 17.5H6.375C6.67337 17.5 6.95952 17.3814 7.1705 17.1705C7.38147 16.9595 7.5 16.6733 7.5 16.375C7.5 16.0766 7.38147 15.7904 7.1705 15.5795C6.95952 15.3685 6.67337 15.25 6.375 15.25H0V21.625C0 21.9233 0.118526 22.2095 0.329505 22.4205C0.540483 22.6314 0.826631 22.75 1.125 22.75C1.42337 22.75 1.70952 22.6314 1.9205 22.4205C2.13147 22.2095 2.25 21.9233 2.25 21.625V19.246C3.21717 20.5934 4.45318 21.7257 5.88 22.5715Z" fill="#9B6FEA"/>
</g>
<defs>
<clipPath id="clip0_1_271">
<rect width="24" height="24" fill="white" transform="translate(0 0.25)"/>
</clipPath>
</defs>
</svg>
