<svg width="24" height="25" viewBox="0 0 24 25" fill="none" xmlns="http://www.w3.org/2000/svg">
<g clip-path="url(#clip0_1_307)">
<path d="M9 12C8.66848 12 8.35054 12.1317 8.11612 12.3661C7.8817 12.6005 7.75 12.9185 7.75 13.25C7.75 13.5815 7.8817 13.8995 8.11612 14.1339C8.35054 14.3683 8.66848 14.5 9 14.5C9.16415 14.5 9.3267 14.4677 9.47835 14.4048C9.63001 14.342 9.76781 14.25 9.88388 14.1339C9.99996 14.0178 10.092 13.88 10.1548 13.7284C10.2177 13.5767 10.25 13.4142 10.25 13.25C10.25 13.0858 10.2177 12.9233 10.1548 12.7716C10.092 12.62 9.99996 12.4822 9.88388 12.3661C9.76781 12.25 9.63001 12.158 9.47835 12.0952C9.3267 12.0323 9.16415 12 9 12ZM15 12C14.6685 12 14.3505 12.1317 14.1161 12.3661C13.8817 12.6005 13.75 12.9185 13.75 13.25C13.75 13.5815 13.8817 13.8995 14.1161 14.1339C14.3505 14.3683 14.6685 14.5 15 14.5C15.3315 14.5 15.6495 14.3683 15.8839 14.1339C16.1183 13.8995 16.25 13.5815 16.25 13.25C16.25 12.9185 16.1183 12.6005 15.8839 12.3661C15.6495 12.1317 15.3315 12 15 12ZM12 2.25C10.6868 2.25 9.38642 2.50866 8.17317 3.0112C6.95991 3.51375 5.85752 4.25035 4.92893 5.17893C3.05357 7.0543 2 9.59784 2 12.25C2 14.9022 3.05357 17.4457 4.92893 19.3211C5.85752 20.2497 6.95991 20.9862 8.17317 21.4888C9.38642 21.9913 10.6868 22.25 12 22.25C14.6522 22.25 17.1957 21.1964 19.0711 19.3211C20.9464 17.4457 22 14.9022 22 12.25C22 10.9368 21.7413 9.63642 21.2388 8.42317C20.7362 7.20991 19.9997 6.10752 19.0711 5.17893C18.1425 4.25035 17.0401 3.51375 15.8268 3.0112C14.6136 2.50866 13.3132 2.25 12 2.25ZM12 20.25C9.87827 20.25 7.84344 19.4071 6.34315 17.9069C4.84285 16.4066 4 14.3717 4 12.25C3.97 11.9641 3.97 11.6759 4 11.39C6.38195 10.3478 8.2673 8.423 9.26 6.02C10.1819 7.3271 11.4043 8.3936 12.8244 9.12972C14.2444 9.86585 15.8205 10.2501 17.42 10.25C18.18 10.25 18.93 10.16 19.67 9.99C20.92 14.25 18.5 18.68 14.26 19.92C13.5 20.14 12.76 20.25 12 20.25ZM0 2.25C0 1.71957 0.210714 1.21086 0.585786 0.835786C0.960859 0.460714 1.46957 0.25 2 0.25L6 0.25V2.25H2V6.25H0V2.25ZM24 22.25C24 22.7804 23.7893 23.2891 23.4142 23.6642C23.0391 24.0393 22.5304 24.25 22 24.25H18V22.25H22V18.25H24V22.25ZM2 24.25C1.46957 24.25 0.960859 24.0393 0.585786 23.6642C0.210714 23.2891 0 22.7804 0 22.25V18.25H2V22.25H6V24.25H2ZM22 0.25C22.5304 0.25 23.0391 0.460714 23.4142 0.835786C23.7893 1.21086 24 1.71957 24 2.25V6.25H22V2.25H18V0.25H22Z" fill="#9B6FEA"/>
</g>
<defs>
<clipPath id="clip0_1_307">
<rect width="24" height="24" fill="white" transform="translate(0 0.25)"/>
</clipPath>
</defs>
</svg>
