<svg width="25" height="24" viewBox="0 0 25 24" fill="none" xmlns="http://www.w3.org/2000/svg">
<g clip-path="url(#clip0_226_260)">
<path d="M5.58203 14.2042C6.14058 13.455 6.86664 12.8469 7.70217 12.4284C8.5377 12.0099 9.45955 11.7926 10.394 11.794C11.7963 11.794 13.0855 12.274 14.1072 13.0797" stroke="#9B6FEA" stroke-width="2" stroke-linecap="round" stroke-linejoin="round"/>
<path d="M9.5346 18.221H3.5346C3.07994 18.221 2.64391 18.0404 2.32242 17.7189C2.00092 17.3974 1.82031 16.9614 1.82031 16.5067V2.79241C1.82031 2.33775 2.00092 1.90172 2.32242 1.58023C2.64391 1.25874 3.07994 1.07813 3.5346 1.07812H17.2489C17.7035 1.07813 18.1396 1.25874 18.4611 1.58023C18.7826 1.90172 18.9632 2.33775 18.9632 2.79241V7.93527" stroke="#9B6FEA" stroke-width="2" stroke-linecap="round" stroke-linejoin="round"/>
<path d="M10.3917 9.22098C10.7294 9.22098 11.0638 9.15447 11.3758 9.02524C11.6878 8.89602 11.9712 8.70661 12.21 8.46783C12.4488 8.22905 12.6382 7.94558 12.7674 7.6336C12.8967 7.32162 12.9632 6.98724 12.9632 6.64955C12.9632 6.31187 12.8967 5.97749 12.7674 5.66551C12.6382 5.35353 12.4488 5.07006 12.21 4.83128C11.9712 4.5925 11.6878 4.40309 11.3758 4.27386C11.0638 4.14464 10.7294 4.07812 10.3917 4.07812C9.70976 4.07813 9.0557 4.34904 8.57347 4.83128C8.09123 5.31352 7.82031 5.96757 7.82031 6.64955C7.82031 7.33154 8.09123 7.98559 8.57347 8.46783C9.0557 8.95006 9.70976 9.22098 10.3917 9.22098ZM13.4157 18.1078C12.814 18.0033 12.814 17.1393 13.4157 17.0347C14.4811 16.8493 15.4672 16.3508 16.2482 15.6028C17.0292 14.8548 17.5697 13.8911 17.8009 12.8347L17.8369 12.6684C17.9672 12.0736 18.814 12.0701 18.9495 12.6633L18.994 12.857C19.2341 13.9086 19.7795 14.8659 20.5619 15.6085C21.3442 16.3512 22.3285 16.8462 23.3912 17.0313C23.9963 17.1376 23.9963 18.005 23.3912 18.1113C22.3284 18.2962 21.344 18.791 20.5616 19.5337C19.7793 20.2765 19.2339 21.2338 18.994 22.2856L18.9495 22.4793C18.814 23.0724 17.9672 23.069 17.8369 22.4741L17.8009 22.3078C17.5697 21.2514 17.0292 20.2878 16.2482 19.5398C15.4672 18.7918 14.4811 18.2933 13.4157 18.1078Z" stroke="#9B6FEA" stroke-width="2" stroke-linecap="round" stroke-linejoin="round"/>
</g>
<defs>
<clipPath id="clip0_226_260">
<rect width="24" height="24" fill="white" transform="translate(0.833984)"/>
</clipPath>
</defs>
</svg>
