<svg width="25" height="24" viewBox="0 0 25 24" fill="none" xmlns="http://www.w3.org/2000/svg">
<path d="M4.16602 21C3.61602 21 3.14502 20.804 2.75302 20.412C2.36102 20.02 2.16535 19.5493 2.16602 19V8C2.16602 7.45 2.36202 6.979 2.75402 6.587C3.14602 6.195 3.61668 5.99934 4.16602 6H8.16602V4C8.16602 3.45 8.36202 2.979 8.75402 2.587C9.14602 2.195 9.61668 1.99934 10.166 2H14.166C14.716 2 15.187 2.196 15.579 2.588C15.971 2.98 16.1667 3.45067 16.166 4V6H20.166C20.716 6 21.187 6.196 21.579 6.588C21.971 6.98 22.1667 7.45067 22.166 8V19C22.166 19.55 21.97 20.021 21.578 20.413C21.186 20.805 20.7154 21.0007 20.166 21H4.16602ZM4.16602 19H20.166V8H4.16602V19ZM10.166 6H14.166V4H10.166V6Z" fill="#9B6FEA"/>
</svg>
